<svg xmlns="http://www.w3.org/2000/svg" version="1.1" xmlns:xlink="http://www.w3.org/1999/xlink" width="200" height="200"><svg xmlns="http://www.w3.org/2000/svg" version="1.1" xmlns:xlink="http://www.w3.org/1999/xlink" viewBox="0 0 200 200"><rect width="200" height="200" fill="url('#gradient')"></rect><defs><linearGradient id="SvgjsLinearGradient1001" gradientTransform="rotate(45 0.5 0.5)"><stop offset="0%" stop-color="#a39073"></stop><stop offset="100%" stop-color="#d2b790"></stop></linearGradient></defs><g><g fill="#fef7f4" transform="matrix(2.265486725663717,0,0,2.265486725663717,8.57971779540577,112.15554693103891)" stroke="#d4d8b4" stroke-width="0"><path d="M8.41-3.78L8.41-3.78Q8.41-4.53 7.88-4.95Q7.34-5.37 6.01-5.82Q4.67-6.27 3.82-6.69L3.82-6.69Q1.05-8.05 1.05-10.42L1.05-10.42Q1.05-11.60 1.74-12.50Q2.43-13.41 3.69-13.91Q4.95-14.41 6.52-14.41L6.52-14.41Q8.06-14.41 9.27-13.87Q10.49-13.32 11.16-12.31Q11.84-11.30 11.84-10L11.84-10L8.42-10Q8.42-10.87 7.89-11.35Q7.35-11.83 6.45-11.83L6.45-11.83Q5.53-11.83 5.00-11.42Q4.46-11.02 4.46-10.39L4.46-10.39Q4.46-9.84 5.05-9.40Q5.63-8.96 7.11-8.48Q8.58-8.01 9.53-7.46L9.53-7.46Q11.84-6.13 11.84-3.80L11.84-3.80Q11.84-1.93 10.43-0.87Q9.02 0.20 6.57 0.20L6.57 0.20Q4.84 0.20 3.44-0.42Q2.04-1.04 1.33-2.12Q0.63-3.20 0.63-4.61L0.63-4.61L4.06-4.61Q4.06-3.47 4.65-2.92Q5.24-2.38 6.57-2.38L6.57-2.38Q7.42-2.38 7.92-2.75Q8.41-3.12 8.41-3.78ZM16.91-10.57L16.91 0L13.61 0L13.61-10.57L16.91-10.57ZM13.42-13.29L13.42-13.29Q13.42-13.99 13.93-14.44Q14.43-14.89 15.24-14.89Q16.05-14.89 16.56-14.44Q17.07-13.99 17.07-13.29Q17.07-12.59 16.56-12.14Q16.05-11.69 15.24-11.69Q14.43-11.69 13.93-12.14Q13.42-12.59 13.42-13.29ZM22.41-15L22.41 0L19.11 0L19.11-15L22.41-15ZM27.01-10.57L28.65-3.92L30.32-10.57L33.79-10.57L30.34 0L26.98 0L23.54-10.57L27.01-10.57ZM39.76 0.20L39.76 0.20Q37.32 0.20 35.82-1.25Q34.32-2.71 34.32-5.03L34.32-5.03L34.32-5.30Q34.32-6.92 34.92-8.16Q35.52-9.40 36.67-10.08Q37.82-10.76 39.40-10.76L39.40-10.76Q41.63-10.76 42.92-9.38Q44.21-8.00 44.21-5.53L44.21-5.53L44.21-4.25L37.67-4.25Q37.84-3.36 38.44-2.85Q39.03-2.34 39.98-2.34L39.98-2.34Q41.54-2.34 42.42-3.44L42.42-3.44L43.93-1.66Q43.31-0.81 42.18-0.31Q41.05 0.20 39.76 0.20ZM39.38-8.22L39.38-8.22Q37.94-8.22 37.67-6.31L37.67-6.31L40.99-6.31L40.99-6.56Q41.01-7.35 40.59-7.79Q40.17-8.22 39.38-8.22ZM51.98-10.64L51.92-7.59L50.84-7.67Q49.29-7.67 48.85-6.69L48.85-6.69L48.85 0L45.56 0L45.56-10.57L48.64-10.57L48.75-9.21Q49.58-10.76 51.06-10.76L51.06-10.76Q51.59-10.76 51.98-10.64L51.98-10.64ZM53.46-3.19L53.46-3.19Q54.24-3.19 54.76-2.73Q55.27-2.27 55.27-1.54Q55.27-0.82 54.76-0.36Q54.24 0.11 53.46 0.11L53.46 0.11Q52.67 0.11 52.15-0.36Q51.64-0.83 51.64-1.54Q51.64-2.26 52.15-2.72Q52.67-3.19 53.46-3.19ZM60.31-14.22L63.13-3.87L65.97-14.22L69.79-14.22L65.01 0L61.26 0L56.51-14.22L60.31-14.22ZM73.13-10.57L74.79-4.61L76.55-10.57L80.08-10.57L75.77 1.77L75.59 2.22Q74.67 4.27 72.34 4.27L72.34 4.27Q71.70 4.27 70.99 4.07L70.99 4.07L70.99 1.72L71.42 1.72Q72.11 1.72 72.48 1.52Q72.84 1.32 73.02 0.80L73.02 0.80L73.28 0.10L69.61-10.57L73.13-10.57Z"></path></g></g></svg><style>@media (prefers-color-scheme: light) { :root { filter: none; } }
@media (prefers-color-scheme: dark) { :root { filter: none; } }
</style></svg>